<svg xmlns="http://www.w3.org/2000/svg" xmlns:xlink="http://www.w3.org/1999/xlink" version="1.1" x="0px" y="0px" viewBox="0 0 100 125" style="enable-background:new 0 0 100 100;" xml:space="preserve"><g><path d="M88.170166,3.905793H11.829834c-4.369277,0-7.9240284,3.5547512-7.9240284,7.9240284v76.340332   c0,4.369278,3.5547514,7.9240265,7.9240284,7.9240265h76.340332c4.3696594,0,7.9240265-3.5547485,7.9240265-7.9240265v-76.340332   C96.0941925,7.4605441,92.5398254,3.905793,88.170166,3.905793z M93.7179108,69.9352722L61.3139687,45.1361809   L50.637291,56.2532883L35.3185692,41.662117L6.2820878,69.5200806v-57.690258c0-3.058919,2.4888291-5.5477486,5.5477481-5.5477486   h76.340332c3.0593033,0,5.5477448,2.4888296,5.5477448,5.5477486V69.9352722z"/><circle cx="76.697525" cy="27.8954334" r="9.0442438"/></g><text x="0" y="115" fill="#000000" font-size="5px" font-weight="bold" font-family="'Helvetica Neue', Helvetica, Arial-Unicode, Arial, Sans-serif">Created by Brad</text><text x="0" y="120" fill="#000000" font-size="5px" font-weight="bold" font-family="'Helvetica Neue', Helvetica, Arial-Unicode, Arial, Sans-serif">from the Noun Project</text></svg>